<?xml version="1.0" encoding="UTF-8"?>
<svg id="Layer_2" data-name="Layer 2" xmlns="http://www.w3.org/2000/svg" viewBox="0 0 141.32 151.57">
  <defs>
    <style>
      .cls-1 {
        fill: #333;
        stroke-width: 0px;
      }
    </style>
  </defs>
  <g id="Layer_1-2" data-name="Layer 1">
    <path class="cls-1" d="m94.99,32.23s-7.28,11.32-13.91-.81C74.45,19.29,73.81-2.37,52.95.21s-10.19,28.14-7.92,35.09,3.1,19.08-11.61,4.82-18.51-9.74-24.71-2.21c-6.2,7.53-7,13.55,2.48,19.66,9.48,6.11,22.32,10.81,11.96,18.6S-2.9,85.47.46,96.54c3.37,11.07,12.4,11.51,17.8,8.33s9.83-1.95,11.78.35,5.76,6.73-.09,11.43c0,0-10.54,8.06-5.14,14.08s15.68-1.86,15.68-1.86c0,0,5.58-2.75,7,5.67s3.1,16.47,9.57,17.01,7.88-7.71,6.64-14.79c-.53-7.35-.27-9.65,3.54-10.98s6.38,3.37,6.38,3.37c0,0,7.88,19.84,16.65,15.5,0,0,6.29-2.39,5.58-8.95s-6.55-19.84,2.13-21.17c0,0,1.72-1.15,18.38,3.05s30.84-6.11,22.48-28-22.76-19.01-12.39-34.14c10.37-15.12,14.84-24.05,4.03-33.13-10.8-9.07-21.22-8.6-35.51,9.92Z"/>
  </g>
</svg>