<?xml version="1.0" encoding="UTF-8"?>
<svg id="Layer_2" data-name="Layer 2" xmlns="http://www.w3.org/2000/svg" viewBox="0 0 266.47 285.8">
  <defs>
    <style>
      .cls-1 {
        fill: #10c1f2;
        stroke-width: 0px;
      }
    </style>
  </defs>
  <g id="Layer_1-2" data-name="Layer 1">
    <path class="cls-1" d="m179.11,60.77s-13.72,21.34-26.22-1.52c-12.5-22.87-13.72-63.73-53.06-58.85-39.33,4.88-19.21,53.06-14.94,66.17,4.27,13.11,5.84,35.97-21.89,9.08-27.72-26.89-34.91-18.37-46.6-4.18s-13.19,25.55,4.68,37.08c17.87,11.52,42.09,20.38,22.55,35.07-19.54,14.7-49.1,17.54-42.76,38.41,6.35,20.88,23.38,21.71,33.57,15.7,10.19-6.01,18.54-3.67,22.21.67s10.86,12.69-.17,21.54c0,0-19.87,15.2-9.69,26.56,10.19,11.36,29.56-3.51,29.56-3.51,0,0,10.51-5.18,13.19,10.69,2.68,15.87,5.85,31.06,18.04,32.07s14.86-14.53,12.53-27.89c-1-13.86-.5-18.2,6.68-20.71,7.18-2.51,12.02,6.35,12.02,6.35,0,0,14.86,37.41,31.4,29.23,0,0,11.86-4.51,10.52-16.87-1.34-12.36-12.36-37.41,4.01-39.92,0,0,3.24-2.18,34.66,5.76,31.43,7.94,58.15-11.51,42.39-52.8-15.75-41.28-42.91-35.85-23.36-64.37,19.55-28.52,27.97-45.36,7.6-62.47-20.37-17.11-40.02-16.21-66.95,18.7Z"/>
  </g>
</svg>